<?xml version="1.0" standalone="no"?>
<!DOCTYPE svg PUBLIC "-//W3C//DTD SVG 20010904//EN"
 "http://www.w3.org/TR/2001/REC-SVG-20010904/DTD/svg10.dtd">
<svg version="1.0" xmlns="http://www.w3.org/2000/svg"
 width="772.000000pt" height="772.000000pt" viewBox="0 0 772.000000 772.000000"
 preserveAspectRatio="xMidYMid meet">
<metadata>
Created by potrace 1.11, written by Peter Selinger 2001-2013
</metadata>
<g transform="translate(0.000000,772.000000) scale(0.100000,-0.100000)"
fill="#000000" stroke="none">
<path d="M6899 7701 c-13 -10 -244 -166 -514 -346 -269 -180 -502 -339 -517
-354 -28 -28 -88 -124 -366 -586 -63 -104 -124 -206 -137 -225 -12 -19 -96
-159 -185 -310 -90 -151 -169 -281 -176 -289 -8 -9 -36 -15 -76 -15 -54 -1
-69 2 -101 26 -21 15 -59 34 -85 42 l-47 16 0 182 c-1 162 -3 193 -24 268 -46
162 -135 287 -285 400 -31 23 -56 44 -56 45 0 1 11 23 25 48 l26 46 -148 220
-148 221 -263 -2 -263 -1 -67 -101 c-37 -56 -71 -105 -75 -111 -5 -5 -41 -59
-81 -120 l-73 -110 23 -37 c13 -21 24 -41 24 -46 0 -4 -28 -26 -62 -49 -142
-93 -249 -234 -291 -383 -28 -99 -36 -252 -21 -380 11 -92 10 -93 -38 -108
-23 -8 -59 -26 -79 -41 -32 -23 -46 -27 -100 -25 -66 2 -62 -1 -104 73 -11 20
-38 67 -60 104 -22 38 -47 81 -55 96 -18 32 -217 379 -231 401 -23 38 -126
217 -132 230 -4 8 -17 31 -28 50 -12 19 -62 105 -112 190 -145 249 -99 207
-551 509 -222 148 -461 308 -530 355 l-127 87 6 -53 c3 -29 8 -64 10 -78 2
-14 7 -50 10 -80 4 -30 8 -66 10 -80 2 -14 6 -47 10 -75 11 -97 22 -181 31
-235 2 -14 6 -54 10 -90 3 -36 7 -67 9 -70 2 -3 6 -37 10 -75 3 -39 8 -77 10
-85 2 -8 7 -42 11 -75 3 -33 8 -67 9 -75 2 -9 6 -43 10 -75 9 -65 -4 -45 205
-335 52 -73 102 -142 110 -154 8 -11 114 -158 234 -326 120 -168 257 -359 304
-425 47 -66 94 -130 104 -141 l19 -22 -53 -30 c-50 -29 -122 -92 -158 -137
-20 -26 -70 -115 -70 -126 0 -4 -24 -31 -54 -59 -139 -132 -212 -305 -223
-530 -4 -104 -9 -124 -44 -213 -78 -193 -142 -391 -190 -592 -34 -145 -38
-161 -44 -191 -117 -556 -140 -636 -212 -743 -13 -19 -23 -37 -23 -41 0 -4 31
-33 69 -64 42 -33 82 -76 100 -108 18 -29 69 -111 115 -183 46 -71 82 -132 81
-135 -2 -3 -6 -36 -9 -75 -4 -38 -8 -84 -11 -101 -2 -18 -7 -63 -10 -100 -7
-79 -14 -124 -20 -134 -4 -6 -38 -161 -49 -220 -2 -14 -16 -81 -31 -150 -15
-69 -29 -136 -32 -150 -2 -14 -10 -53 -18 -86 -8 -34 -16 -73 -19 -85 -2 -13
-11 -58 -20 -99 -8 -41 -27 -131 -41 -200 -14 -69 -30 -141 -35 -160 -5 -19
-12 -53 -15 -75 -4 -22 -11 -57 -16 -79 -10 -35 -7 -50 9 -52 4 0 45 -4 92 -8
47 -4 96 -9 110 -11 14 -2 59 -6 100 -10 41 -3 91 -8 110 -10 19 -2 58 -7 85
-10 28 -2 68 -7 90 -10 59 -6 152 -15 220 -20 33 -3 76 -7 95 -10 19 -2 58 -7
85 -9 28 -3 77 -8 110 -12 109 -11 129 -10 200 8 39 11 84 21 100 24 17 3 38
10 48 15 9 5 17 7 17 5 0 -3 11 -1 25 4 14 5 36 12 48 14 12 2 96 20 187 39
91 20 181 38 200 41 19 3 44 8 56 10 12 2 45 7 75 11 30 4 56 8 59 10 3 2 37
6 75 10 39 4 72 9 75 10 3 2 34 6 70 10 36 4 68 10 72 13 4 4 10 36 14 72 3
36 8 67 10 69 3 3 166 -124 299 -234 152 -124 269 -215 277 -215 10 0 467 375
479 393 12 17 25 -1 27 -39 2 -20 5 -40 7 -44 3 -4 49 -13 102 -19 54 -7 109
-14 123 -16 14 -2 86 -14 160 -25 163 -25 394 -74 632 -134 97 -25 185 -43
195 -42 10 2 54 7 98 11 44 3 94 8 110 11 17 2 57 6 90 9 33 3 76 8 96 10 137
13 169 16 209 21 25 2 72 7 105 9 33 3 76 7 95 10 36 5 107 13 175 19 22 2 74
8 115 12 41 4 83 7 92 6 10 0 20 3 23 9 5 7 -20 139 -61 324 -2 11 -7 34 -10
50 -2 17 -9 46 -14 65 -5 19 -11 46 -14 60 -5 26 -45 224 -51 250 -1 8 -15 74
-30 145 -14 72 -30 146 -35 165 -5 19 -12 50 -15 68 -3 18 -12 65 -21 105 -8
39 -18 83 -20 96 -3 14 -7 28 -10 33 -8 12 -11 35 -18 118 -4 41 -9 89 -11
105 -2 17 -6 65 -10 108 l-7 78 58 92 c179 285 210 326 287 378 8 6 -47 125
-83 179 -27 40 -50 152 -85 410 -27 203 -76 417 -135 587 -31 89 -109 272
-139 325 -10 18 -39 69 -64 113 -44 77 -45 84 -51 180 -14 271 -92 453 -246
571 -14 10 -36 41 -50 68 -14 27 -45 71 -69 98 -44 49 -150 128 -171 128 -10
0 25 56 67 110 7 8 177 238 379 510 202 272 374 505 383 516 9 12 23 32 31 44
8 12 49 67 91 123 69 92 77 108 84 162 4 32 8 66 10 75 2 8 6 44 10 80 4 36 9
74 11 85 2 11 6 45 10 75 3 30 8 69 10 85 3 17 7 46 9 65 3 37 13 108 20 150
2 14 7 54 11 90 3 36 8 74 10 85 2 11 6 40 9 65 9 72 16 133 20 160 11 72 16
130 12 130 -2 0 -15 -8 -28 -19z"/>
</g>
</svg>
